<?xml version="1.0" standalone="no"?>
<!DOCTYPE svg PUBLIC "-//W3C//DTD SVG 20010904//EN"
 "http://www.w3.org/TR/2001/REC-SVG-20010904/DTD/svg10.dtd">
<svg version="1.0" xmlns="http://www.w3.org/2000/svg"
 width="375.000000pt" height="375.000000pt" viewBox="0 0 375.000000 375.000000"
 preserveAspectRatio="xMidYMid meet">
<metadata>
Created by potrace 1.11, written by Peter Selinger 2001-2013
</metadata>
<g transform="translate(0.000000,375.000000) scale(0.100000,-0.100000)"
fill="#000000" stroke="none">
<path d="M576 3411 c5 -11 1 -12 -20 -7 -16 4 -26 2 -26 -4 0 -6 -5 -8 -12 -4
-16 10 -78 11 -78 1 0 -5 -4 -6 -9 -2 -5 3 -13 0 -16 -6 -4 -5 -14 -8 -22 -5
-8 3 -11 1 -8 -4 3 -6 -1 -13 -9 -16 -9 -3 -13 -10 -10 -15 3 -5 1 -9 -4 -9
-14 0 -22 -40 -9 -40 7 0 5 -5 -3 -9 -11 -7 -15 -26 -15 -70 1 -34 -2 -61 -5
-61 -3 0 -5 -34 -3 -75 1 -57 -1 -74 -10 -68 -7 4 -7 0 2 -10 8 -10 10 -23 5
-34 -12 -26 -12 -46 0 -62 8 -11 8 -13 0 -8 -8 5 -11 -5 -11 -28 1 -19 5 -35
10 -35 4 0 5 -5 2 -10 -4 -6 -12 -7 -18 -3 -7 4 -5 -1 3 -12 17 -21 17 -24 -2
-36 -10 -7 -10 -9 2 -9 13 0 13 -1 0 -10 -13 -9 -13 -11 0 -20 14 -9 7 -14
-13 -11 -5 1 -5 -4 0 -11 13 -21 13 -109 -1 -101 -6 4 -5 -1 3 -10 11 -14 11
-20 0 -34 -12 -15 -12 -16 1 -8 13 7 13 6 2 -7 -8 -10 -9 -18 -3 -22 6 -4 8
-13 5 -21 -4 -8 -11 -12 -16 -9 -6 4 -5 -2 1 -14 6 -11 9 -37 6 -56 -2 -21 0
-36 6 -36 6 0 7 -5 4 -10 -4 -6 -11 -7 -17 -4 -7 5 -8 2 -2 -7 11 -18 14 -39
6 -39 -4 0 -6 -37 -5 -82 1 -50 -3 -89 -10 -97 -10 -12 -9 -13 2 -6 11 6 12 5
5 -6 -14 -23 -15 -49 -1 -49 9 0 9 -2 -1 -9 -8 -4 -13 -11 -13 -15 3 -18 0
-26 -9 -26 -6 0 -22 -11 -36 -25 -14 -14 -22 -25 -17 -25 4 0 2 -5 -5 -12 -7
-7 -12 -20 -12 -31 0 -10 -4 -16 -8 -13 -5 3 -8 -9 -7 -25 1 -17 -4 -37 -12
-45 -9 -9 -10 -14 -3 -14 13 0 9 -42 -5 -52 -6 -5 -5 -8 3 -8 7 0 10 -5 7 -10
-4 -6 -12 -7 -18 -3 -8 5 -8 2 0 -9 7 -8 10 -18 6 -22 -4 -4 -1 -11 7 -16 11
-7 12 -10 2 -10 -7 0 -11 -4 -8 -9 4 -5 2 -21 -4 -35 -6 -18 -6 -26 1 -26 6 0
7 -5 4 -10 -4 -6 -12 -7 -18 -3 -9 5 -9 3 0 -8 6 -8 13 -26 15 -39 2 -14 7
-30 10 -36 4 -6 4 -14 1 -18 -11 -11 -11 -56 0 -56 5 0 7 -9 4 -20 -3 -11 -1
-22 3 -25 5 -3 7 -14 5 -25 -2 -11 0 -20 5 -20 4 0 11 -7 14 -16 4 -10 2 -13
-7 -8 -8 6 -8 3 1 -9 8 -9 11 -21 7 -26 -3 -6 0 -8 9 -5 11 4 13 0 9 -18 -4
-18 -3 -20 6 -8 9 13 11 13 11 0 0 -9 9 -22 20 -30 11 -8 20 -18 20 -23 0 -11
79 -87 91 -87 5 0 9 -7 9 -16 0 -8 4 -13 9 -10 8 5 11 -14 12 -67 0 -9 4 -15
10 -12 5 4 9 -1 9 -9 0 -9 5 -16 11 -16 5 0 8 -3 6 -8 -6 -10 30 -42 39 -34 4
4 4 1 0 -5 -4 -8 8 -26 29 -47 19 -19 35 -41 35 -50 0 -9 3 -15 7 -14 5 2 8 1
8 -2 0 -11 30 -38 37 -33 5 2 8 -3 8 -11 0 -9 5 -16 10 -16 6 0 10 -9 10 -20
0 -11 5 -19 11 -18 6 2 16 -6 22 -17 7 -11 20 -27 30 -36 9 -9 17 -20 17 -23
0 -12 27 -35 34 -29 3 4 6 2 6 -4 0 -5 11 -23 25 -39 14 -16 25 -25 25 -20 0
5 8 -1 19 -12 10 -12 28 -22 40 -22 11 0 21 -5 21 -11 0 -5 5 -7 12 -3 6 4 17
-1 25 -11 9 -14 13 -15 13 -4 0 12 2 12 10 -1 5 -8 10 -11 10 -6 0 5 7 3 15
-4 8 -6 19 -9 25 -5 5 3 10 2 10 -4 0 -6 7 -8 15 -5 8 4 15 1 15 -5 0 -6 7 -8
17 -4 10 4 14 2 10 -4 -4 -6 9 -10 30 -11 20 -1 39 -5 42 -9 3 -5 17 -9 31
-11 13 -1 28 -8 32 -15 6 -9 8 -8 8 3 0 9 3 11 8 5 7 -10 27 -17 50 -18 6 0
12 -4 12 -8 0 -4 10 -5 22 -1 16 4 19 2 13 -8 -6 -10 -4 -11 6 -4 19 11 39 14
39 5 0 -4 14 -6 30 -3 17 2 38 -2 47 -9 12 -10 14 -10 9 -1 -4 6 -2 12 3 12 6
0 11 -4 11 -8 0 -4 10 -8 23 -9 51 -1 58 -3 51 -15 -6 -10 -5 -10 7 -1 12 9
18 10 27 1 8 -8 16 -8 28 3 12 9 15 10 10 2 -7 -12 17 -18 52 -14 8 1 21 -4
30 -11 11 -9 14 -10 8 -1 -5 9 -2 11 8 7 9 -3 13 -11 9 -18 -4 -6 0 -6 9 2 13
10 17 10 21 0 4 -10 7 -10 15 1 7 9 12 10 16 2 4 -6 12 -9 17 -6 5 4 9 2 9 -2
0 -5 11 -10 26 -11 15 -1 23 2 19 9 -4 5 10 3 29 -5 20 -8 34 -11 31 -7 -6 11
20 22 30 13 10 -10 79 -9 93 1 8 6 18 5 28 -3 12 -11 15 -11 12 0 -2 10 8 14
39 14 23 0 39 4 37 8 -8 13 11 9 25 -4 11 -10 13 -10 7 0 -5 8 0 12 14 12 12
0 31 5 42 11 15 8 19 8 14 0 -4 -6 -3 -11 3 -11 5 0 13 5 17 11 3 6 15 9 25 6
11 -3 19 -2 19 2 0 4 18 7 39 6 22 -1 37 3 35 7 -3 4 4 8 15 8 12 0 21 -6 21
-12 0 -9 3 -10 8 -2 4 6 21 11 39 10 17 -1 29 3 26 7 -2 4 7 6 21 3 14 -3 26
0 26 6 0 6 13 8 29 6 17 -2 29 0 28 5 -1 6 14 12 33 14 19 3 40 9 47 15 6 5
20 8 30 7 10 -2 28 2 39 9 12 6 24 8 28 5 3 -3 6 -2 6 4 0 6 21 14 48 18 26 4
50 12 53 17 4 6 20 11 37 12 17 0 28 4 26 8 -2 3 11 11 30 18 19 6 42 22 51
36 9 14 21 22 27 18 6 -4 8 -3 5 3 -4 6 0 14 9 17 8 3 12 10 9 16 -6 9 8 14
28 11 5 -1 6 3 2 9 -9 14 15 42 30 36 8 -3 11 2 8 15 -4 13 0 19 11 19 10 0
15 4 12 8 -3 5 7 22 23 38 16 16 32 39 36 52 4 13 9 21 12 19 6 -7 43 30 43
42 0 6 10 17 23 26 12 8 22 19 22 23 0 5 13 20 29 35 16 15 26 27 22 27 -3 0
3 16 13 36 11 20 18 44 16 55 -2 12 2 19 11 19 9 0 12 5 8 12 -5 7 -2 9 9 5
11 -4 14 -2 11 7 -3 8 0 17 7 22 8 5 10 3 4 -7 -8 -12 -6 -12 8 0 9 7 14 17
11 22 -3 5 0 8 6 7 7 -2 17 6 23 16 18 28 51 61 59 59 7 -3 9 8 8 32 -1 3 6
13 15 21 8 9 13 20 10 25 -4 5 2 9 12 9 14 0 15 2 4 9 -9 6 -10 11 -2 15 6 4
11 18 11 32 0 18 4 23 13 18 9 -6 8 -3 -1 8 -9 11 -10 23 -5 35 11 22 10 44
-1 62 -6 10 -5 12 3 7 8 -5 10 0 7 18 -3 14 -1 26 3 26 8 0 7 23 -3 108 -2 19
1 32 8 32 6 0 5 4 -3 9 -7 5 -10 14 -7 20 4 6 1 11 -6 11 -8 0 -9 3 -3 8 13 9
19 35 6 28 -5 -3 -10 10 -11 29 -3 77 -5 85 -18 85 -7 0 -10 5 -7 10 4 6 12 8
18 4 7 -3 3 3 -8 13 -11 10 -21 24 -22 31 -4 18 -64 72 -74 66 -5 -3 -9 0 -9
5 0 6 6 11 13 11 9 0 9 2 1 8 -7 4 -12 26 -11 49 0 23 5 39 10 36 5 -3 3 4 -4
15 -7 12 -17 18 -23 15 -5 -4 -6 -1 0 8 13 20 12 63 0 71 -8 5 -7 8 1 8 7 0
10 7 6 17 -5 12 -3 14 8 8 10 -7 10 -3 -2 16 -12 18 -14 30 -7 43 7 12 5 24
-6 41 -10 16 -12 25 -4 27 8 3 8 10 -1 25 -8 17 -8 24 1 29 7 5 8 3 3 -6 -5
-9 -4 -11 4 -6 9 6 9 11 0 22 -9 11 -8 18 2 31 10 11 10 14 2 9 -8 -4 -13 -1
-13 9 0 10 5 13 13 9 6 -4 4 2 -6 13 -14 16 -15 22 -5 27 10 4 10 7 1 12 -7 3
-9 12 -6 20 3 8 -1 14 -8 14 -9 0 -10 3 -4 8 13 9 14 92 2 92 -6 0 -6 5 -1 13
9 11 10 35 4 47 -9 15 -6 197 2 207 7 9 6 15 -6 19 -11 4 -15 16 -12 37 1 18
-1 40 -6 50 -10 20 2 23 21 5 8 -7 6 -1 -3 13 -9 14 -13 29 -9 32 3 4 0 7 -8
7 -12 0 -12 2 0 9 11 7 12 13 3 23 -9 11 -9 18 1 28 10 10 9 11 -2 5 -11 -6
-13 -1 -9 24 2 17 1 31 -4 31 -4 0 -11 12 -14 27 -4 15 -12 33 -18 38 -12 12
-50 28 -53 23 -1 -2 -9 6 -18 17 -9 11 -13 14 -9 6 5 -11 1 -12 -20 -7 -18 4
-26 2 -27 -6 0 -7 -4 -4 -9 7 -5 11 -9 14 -9 8 -1 -16 -51 -17 -51 -1 0 7 -5
6 -12 -4 -7 -9 -26 -19 -42 -22 -15 -4 -26 -10 -22 -13 3 -3 -2 -12 -12 -19
-10 -6 -19 -27 -20 -44 -1 -18 -5 -37 -9 -43 -5 -9 -11 -55 -15 -127 0 -8 -6
-21 -12 -29 -9 -12 -8 -13 4 -6 12 7 13 6 3 -7 -7 -8 -10 -18 -6 -21 3 -4 2
-7 -4 -7 -5 0 -7 -14 -5 -31 3 -19 1 -29 -5 -26 -5 3 -8 -8 -7 -25 1 -17 -2
-42 -7 -55 -6 -16 -5 -23 4 -23 9 0 9 -2 -1 -8 -11 -7 -20 -47 -24 -102 0 -8
-5 -21 -11 -27 -5 -7 -6 -13 -2 -13 4 0 1 -8 -6 -17 -10 -11 -10 -14 -1 -9 6
4 12 2 12 -3 0 -6 -5 -11 -11 -11 -5 0 -7 -5 -3 -11 3 -6 0 -15 -7 -20 -11 -7
-11 -9 -1 -9 7 0 10 -5 7 -10 -4 -6 -11 -7 -17 -4 -7 5 -8 2 -2 -7 15 -25 14
-41 -4 -35 -14 5 -14 4 1 -8 10 -8 13 -16 7 -18 -11 -3 -23 -49 -22 -80 0 -10
-4 -18 -10 -18 -6 0 -8 -9 -5 -20 4 -17 2 -18 -15 -9 -11 6 -23 19 -25 30 -3
10 -9 16 -14 13 -5 -3 -9 0 -9 7 0 7 -3 10 -6 6 -8 -8 -33 16 -27 26 2 4 -3 7
-12 7 -8 0 -18 7 -21 15 -4 8 -10 12 -15 9 -5 -3 -8 -2 -7 3 2 4 1 8 -2 8 -3
1 -18 12 -33 25 -16 14 -32 24 -35 24 -4 -1 -16 8 -27 20 -12 13 -27 20 -34
18 -9 -3 -11 0 -6 8 6 10 3 12 -13 8 -16 -4 -19 -2 -15 10 5 11 2 14 -10 9 -9
-3 -17 -2 -17 3 0 5 -9 12 -20 15 -12 4 -17 11 -14 18 5 9 4 9 -6 0 -10 -9
-16 -8 -27 3 -8 8 -19 12 -24 9 -5 -4 -9 -1 -9 6 0 7 -3 10 -6 6 -8 -8 -65 13
-59 23 3 4 -4 6 -15 3 -11 -3 -20 -1 -20 5 0 6 -9 9 -20 7 -11 -2 -27 3 -35
11 -11 12 -15 12 -15 2 0 -10 -3 -9 -10 2 -5 8 -10 11 -10 7 0 -4 -10 -3 -21
4 -12 6 -43 13 -68 16 -25 3 -49 10 -53 16 -6 9 -8 9 -8 0 0 -13 -25 -12 -37
2 -4 4 -2 5 6 0 10 -6 12 -4 7 4 -6 8 -12 9 -20 2 -8 -7 -24 -7 -44 -1 -18 5
-32 6 -32 2 0 -4 -5 0 -10 8 -7 11 -10 11 -10 2 0 -8 -9 -11 -27 -8 -16 2 -28
5 -28 6 0 1 -32 3 -72 4 -39 1 -70 -1 -68 -4 6 -9 -38 -6 -54 4 -9 6 -12 5 -8
-1 3 -5 -15 -10 -44 -10 -28 -1 -58 -8 -67 -15 -13 -11 -15 -11 -7 2 8 13 7
13 -8 1 -9 -7 -17 -11 -17 -8 0 4 -30 -1 -105 -20 -11 -2 -27 -5 -35 -6 -8 -1
-28 -11 -43 -21 -15 -10 -30 -16 -33 -13 -3 3 -29 -5 -59 -18 -29 -13 -56 -21
-59 -18 -3 4 -6 1 -6 -6 0 -7 -4 -9 -10 -6 -5 3 -10 1 -10 -6 0 -7 -3 -10 -6
-6 -4 3 -13 -1 -21 -9 -9 -8 -22 -13 -29 -10 -7 3 -20 -4 -28 -16 -8 -11 -19
-17 -25 -13 -6 3 -11 -1 -11 -10 0 -12 -5 -15 -17 -11 -10 4 -14 4 -11 0 4 -3
0 -13 -8 -21 -12 -13 -17 -13 -31 -1 -12 9 -15 9 -9 0 8 -14 -18 -45 -29 -34
-4 4 -5 0 -3 -8 2 -8 -3 -14 -9 -13 -7 2 -12 -3 -10 -10 1 -6 -4 -11 -11 -9
-7 1 -17 -9 -23 -22 -8 -16 -18 -23 -31 -21 -10 2 -16 0 -13 -6 7 -11 -18 -39
-35 -39 -6 0 -9 -4 -5 -9 9 -16 -9 -20 -23 -5 -7 8 -10 14 -8 14 3 0 1 11 -4
26 -11 28 -22 80 -24 107 0 9 -3 17 -6 17 -5 0 -11 31 -13 73 -1 9 -5 17 -10
17 -5 0 -5 6 2 13 7 9 7 17 0 24 -6 6 -11 24 -11 41 -1 20 -5 29 -12 25 -6 -4
-4 2 4 12 9 11 10 16 3 11 -9 -5 -13 -1 -13 11 0 11 6 25 13 32 10 10 8 11 -7
5 -13 -5 -17 -4 -13 3 4 6 1 14 -5 16 -10 4 -10 6 0 6 15 1 16 31 1 31 -6 0
-9 8 -7 18 3 11 0 30 -8 43 -9 18 -9 27 -1 37 7 9 7 16 1 20 -5 4 -9 14 -9 22
1 8 -4 30 -12 49 -11 30 -11 32 3 27 14 -5 15 -4 4 9 -7 8 -9 15 -5 15 4 0 3
6 -3 13 -6 7 -13 36 -14 64 -2 28 -6 49 -9 47 -4 -2 -12 9 -19 25 -10 26 -30
40 -52 37 -4 -1 -14 8 -23 19 -9 11 -13 14 -9 6z"/>
</g>
</svg>
